<svg width="1024" height="1024" xmlns="http://www.w3.org/2000/svg" p-id="33100" version="1.1" class="icon" t="1682043175927">
 <g>
  <title>Layer 1</title>
  <path transform="rotate(180 644.557 512)" id="svg_1" p-id="33101" fill="#fff" d="m369.67669,37.44l550.4,0a83.2,83.2 0 0 1 82.56,83.84l0,145.92l-70.4,0l0,-145.92a12.8,12.8 0 0 0 -12.16,-12.8l-550.4,0a12.8,12.8 0 0 0 -12.16,12.8l0,782.08a12.8,12.8 0 0 0 12.16,12.8l550.4,0a12.8,12.8 0 0 0 12.16,-12.8l0,-163.84l70.4,0l0,163.84a83.2,83.2 0 0 1 -82.56,83.2l-550.4,0a83.2,83.2 0 0 1 -83.2,-83.84l0,-781.44a83.2,83.2 0 0 1 83.2,-83.84z"/>
  <path id="svg_2" p-id="33102" fill="#fff" d="m590.5715,547.2l-533.76,0a35.84,35.84 0 0 1 0,-71.04l533.76,0l-98.56,-78.72a35.84,35.84 0 0 1 -5.76,-49.92a35.2,35.2 0 0 1 49.28,-5.76l177.92,142.72a35.84,35.84 0 0 1 0,55.68l-177.92,142.08a35.2,35.2 0 0 1 -49.28,-5.76a35.84,35.84 0 0 1 5.76,-49.92l98.56,-79.36z"/>
 </g>

</svg>
