<?xml version="1.0" standalone="no"?><!DOCTYPE svg PUBLIC "-//W3C//DTD SVG 1.1//EN" "http://www.w3.org/Graphics/SVG/1.1/DTD/svg11.dtd"><svg t="1682043401001" class="icon" viewBox="0 0 1024 1024" version="1.1" xmlns="http://www.w3.org/2000/svg" p-id="33318" xmlns:xlink="http://www.w3.org/1999/xlink" width="32" height="32"><path d="M89.6 33.92H640a83.2 83.2 0 0 1 82.56 83.84v145.92h-70.4V117.76a12.8 12.8 0 0 0-12.16-12.8H89.6a12.8 12.8 0 0 0-12.16 12.8v782.08a12.8 12.8 0 0 0 12.16 12.8H640a12.8 12.8 0 0 0 12.16-12.8V736h70.4v163.84a83.2 83.2 0 0 1-82.56 83.2H89.6a83.2 83.2 0 0 1-83.2-83.84V117.76A83.2 83.2 0 0 1 89.6 33.92z" fill="#fff" p-id="33319"></path><path d="M880.64 540.8H346.88a35.84 35.84 0 0 1 0-71.04h533.76l-98.56-78.72a35.84 35.84 0 0 1-5.76-49.92 35.2 35.2 0 0 1 49.28-5.76l177.92 142.72a35.84 35.84 0 0 1 0 55.68l-177.92 142.08a35.2 35.2 0 0 1-49.28-5.76 35.84 35.84 0 0 1 5.76-49.92z" fill="#fff" p-id="33320"></path></svg>
